<svg id="Smock_Calendar_18_N" xmlns="http://www.w3.org/2000/svg" width="18" height="18" viewBox="0 0 18 18">
  <rect id="Canvas" width="18" height="18" fill="#3a829c" opacity="0"/>
  <path id="Path_60692" data-name="Path 60692" d="M16.5,3H14V1.5a.5.5,0,0,0-.5-.5h-1a.5.5,0,0,0-.5.5V3H5V1.5A.5.5,0,0,0,4.5,1h-1a.5.5,0,0,0-.5.5V3H.5a.5.5,0,0,0-.5.5v13a.5.5,0,0,0,.5.5h16a.5.5,0,0,0,.5-.5V3.5A.5.5,0,0,0,16.5,3ZM16,16H1V4H3v.5a.5.5,0,0,0,.5.5h1A.5.5,0,0,0,5,4.5V4h7v.5a.5.5,0,0,0,.5.5h1a.5.5,0,0,0,.5-.5V4h2Z" fill="#3a829c"/>
  <rect id="Rectangle_145885" data-name="Rectangle 145885" width="2" height="2" transform="translate(3 6)" fill="#3a829c"/>
  <rect id="Rectangle_145886" data-name="Rectangle 145886" width="2" height="2" transform="translate(6 6)" fill="#3a829c"/>
  <rect id="Rectangle_145887" data-name="Rectangle 145887" width="2" height="2" transform="translate(9 6)" fill="#3a829c"/>
  <rect id="Rectangle_145888" data-name="Rectangle 145888" width="2" height="2" transform="translate(12 6)" fill="#3a829c"/>
  <rect id="Rectangle_145889" data-name="Rectangle 145889" width="2" height="2" transform="translate(3 9)" fill="#3a829c"/>
  <rect id="Rectangle_145890" data-name="Rectangle 145890" width="2" height="2" transform="translate(6 9)" fill="#3a829c"/>
  <rect id="Rectangle_145891" data-name="Rectangle 145891" width="2" height="2" transform="translate(9 9)" fill="#3a829c"/>
  <rect id="Rectangle_145892" data-name="Rectangle 145892" width="2" height="2" transform="translate(12 9)" fill="#3a829c"/>
  <rect id="Rectangle_145893" data-name="Rectangle 145893" width="2" height="2" transform="translate(3 12)" fill="#3a829c"/>
  <rect id="Rectangle_145894" data-name="Rectangle 145894" width="2" height="2" transform="translate(6 12)" fill="#3a829c"/>
  <rect id="Rectangle_145895" data-name="Rectangle 145895" width="2" height="2" transform="translate(9 12)" fill="#3a829c"/>
  <rect id="Rectangle_145896" data-name="Rectangle 145896" width="2" height="2" transform="translate(12 12)" fill="#3a829c"/>
</svg>
