<svg id="Smock_Clock_18_N" xmlns="http://www.w3.org/2000/svg" width="18" height="18" viewBox="0 0 18 18">
  <rect id="Canvas" width="18" height="18" fill="#3a829c" opacity="0"/>
  <path id="Path_60697" data-name="Path 60697" d="M9,1a8,8,0,1,0,8,8A8,8,0,0,0,9,1ZM9,16a7,7,0,1,1,7-7,7,7,0,0,1-7,7Z" fill="#3a829c"/>
  <path id="Path_60698" data-name="Path 60698" d="M10,8.043V3.5A.5.5,0,0,0,9.5,3h-1a.5.5,0,0,0-.5.5V8.793a.5.5,0,0,0,.146.353l2.8,2.8a.5.5,0,0,0,.707,0h0l.668-.668a.5.5,0,0,0,0-.707L10.146,8.4A.5.5,0,0,1,10,8.043Z" fill="#3a829c"/>
</svg>
